<?xml version="1.0" encoding="utf-8"?>
<!-- Generator: Adobe Illustrator 16.0.4, SVG Export Plug-In . SVG Version: 6.00 Build 0)  -->
<!DOCTYPE svg PUBLIC "-//W3C//DTD SVG 1.1//EN" "http://www.w3.org/Graphics/SVG/1.1/DTD/svg11.dtd">
<svg version="1.1" id="Layer_1" xmlns="http://www.w3.org/2000/svg" xmlns:xlink="http://www.w3.org/1999/xlink" x="0px" y="0px"
	 width="30px" height="66px" viewBox="0 13.5 30 66" enable-background="new 0 13.5 30 66" xml:space="preserve">
<g id="Layer_1_1_">
</g>
<g>
	<g>
		<path fill="#777777" d="M11.971,27.278c-1.068,0.806-1.6,1.774-1.597,2.905c0.004,1.352,0.668,2.387,1.993,3.107
			c-0.353,1.09-0.864,2.041-1.536,2.85c-0.671,0.812-1.285,1.217-1.841,1.219c-0.263,0-0.62-0.09-1.073-0.271l-0.218-0.086
			c-0.445-0.188-0.839-0.275-1.179-0.275c-0.323,0.002-0.676,0.074-1.059,0.219l-0.273,0.105l-0.344,0.148
			c-0.27,0.115-0.544,0.174-0.821,0.176c-0.65,0.002-1.369-0.562-2.158-1.697c-1.137-1.621-1.707-3.393-1.712-5.309
			c-0.004-1.363,0.346-2.461,1.05-3.296c0.704-0.834,1.638-1.253,2.802-1.257c0.436-0.001,0.842,0.083,1.222,0.25l0.26,0.111
			l0.273,0.118c0.243,0.108,0.44,0.162,0.589,0.162c0.192,0,0.405-0.048,0.638-0.144l0.358-0.149l0.266-0.104
			c0.425-0.165,0.895-0.248,1.409-0.25C10.242,25.805,11.225,26.294,11.971,27.278z M9.067,22.367
			c0.014,0.173,0.022,0.307,0.023,0.401c0.002,0.857-0.292,1.61-0.879,2.259S6.94,26,6.159,26.001
			c-0.023-0.193-0.036-0.332-0.036-0.416c-0.002-0.729,0.27-1.414,0.816-2.054c0.544-0.641,1.177-1.016,1.897-1.127
			C8.888,22.395,8.965,22.381,9.067,22.367z"/>
	</g>
	<polygon fill="#DDDDDD" points="20.492,13.5 28.875,30.002 20.248,46.5 21.381,46.5 30,30.009 21.609,13.5 	"/>
</g>
<g>
	<g>
		<path fill="#434343" d="M11.971,60.278c-1.068,0.806-1.6,1.774-1.597,2.905c0.004,1.352,0.668,2.387,1.993,3.107
			c-0.353,1.09-0.864,2.041-1.536,2.85c-0.671,0.812-1.285,1.217-1.841,1.219c-0.263,0-0.62-0.09-1.073-0.271l-0.218-0.086
			c-0.445-0.188-0.839-0.275-1.179-0.275c-0.323,0.002-0.676,0.074-1.059,0.219l-0.273,0.105l-0.344,0.148
			c-0.27,0.115-0.544,0.174-0.821,0.176c-0.65,0.002-1.369-0.562-2.158-1.697c-1.137-1.621-1.707-3.393-1.712-5.309
			c-0.004-1.363,0.346-2.461,1.05-3.297c0.704-0.834,1.638-1.253,2.802-1.257c0.436-0.001,0.842,0.083,1.222,0.25l0.26,0.11
			l0.273,0.119c0.243,0.107,0.44,0.162,0.589,0.162c0.192,0,0.405-0.049,0.638-0.145l0.358-0.148l0.266-0.104
			c0.425-0.165,0.895-0.248,1.409-0.25C10.242,58.805,11.225,59.295,11.971,60.278z M9.067,55.367
			c0.014,0.172,0.022,0.307,0.023,0.4c0.002,0.857-0.292,1.609-0.879,2.259S6.94,59,6.159,59.002
			c-0.023-0.193-0.036-0.332-0.036-0.416c-0.002-0.729,0.27-1.414,0.816-2.055c0.544-0.641,1.177-1.016,1.897-1.127
			C8.888,55.395,8.965,55.381,9.067,55.367z"/>
	</g>
	<polygon fill="#DDDDDD" points="20.492,46.5 28.875,63.002 20.248,79.5 21.381,79.5 30,63.01 21.609,46.5 	"/>
</g>
</svg>
